<svg xmlns="http://www.w3.org/2000/svg" viewBox="0 0 1440 320"><path fill="#f9f6ff" fill-opacity="1" d="M0,32L0,160L36.9,160L36.9,32L73.8,32L73.8,128L110.8,128L110.8,32L147.7,32L147.7,64L184.6,64L184.6,160L221.5,160L221.5,224L258.5,224L258.5,32L295.4,32L295.4,96L332.3,96L332.3,288L369.2,288L369.2,192L406.2,192L406.2,256L443.1,256L443.1,128L480,128L480,64L516.9,64L516.9,32L553.8,32L553.8,224L590.8,224L590.8,96L627.7,96L627.7,0L664.6,0L664.6,32L701.5,32L701.5,64L738.5,64L738.5,96L775.4,96L775.4,160L812.3,160L812.3,96L849.2,96L849.2,256L886.2,256L886.2,224L923.1,224L923.1,0L960,0L960,0L996.9,0L996.9,128L1033.8,128L1033.8,256L1070.8,256L1070.8,224L1107.7,224L1107.7,160L1144.6,160L1144.6,96L1181.5,96L1181.5,160L1218.5,160L1218.5,160L1255.4,160L1255.4,128L1292.3,128L1292.3,288L1329.2,288L1329.2,160L1366.2,160L1366.2,224L1403.1,224L1403.1,288L1440,288L1440,320L1403.1,320L1403.1,320L1366.2,320L1366.2,320L1329.2,320L1329.2,320L1292.3,320L1292.3,320L1255.4,320L1255.4,320L1218.5,320L1218.5,320L1181.5,320L1181.5,320L1144.6,320L1144.6,320L1107.7,320L1107.7,320L1070.8,320L1070.8,320L1033.8,320L1033.8,320L996.9,320L996.9,320L960,320L960,320L923.1,320L923.1,320L886.2,320L886.2,320L849.2,320L849.2,320L812.3,320L812.3,320L775.4,320L775.4,320L738.5,320L738.5,320L701.5,320L701.5,320L664.6,320L664.6,320L627.7,320L627.7,320L590.8,320L590.8,320L553.8,320L553.8,320L516.9,320L516.9,320L480,320L480,320L443.1,320L443.1,320L406.2,320L406.2,320L369.2,320L369.2,320L332.3,320L332.3,320L295.4,320L295.4,320L258.5,320L258.5,320L221.5,320L221.5,320L184.6,320L184.6,320L147.7,320L147.7,320L110.8,320L110.8,320L73.8,320L73.8,320L36.9,320L36.9,320L0,320L0,320Z"></path></svg>