<?xml version="1.0" standalone="no"?><svg xmlns="http://www.w3.org/2000/svg" viewBox="0 0 1440 320"><path fill="#f9f6ff" fill-opacity="1" d="M0,160L34.3,181.3C68.6,203,137,245,206,266.7C274.3,288,343,288,411,250.7C480,213,549,139,617,101.3C685.7,64,754,64,823,85.3C891.4,107,960,149,1029,160C1097.1,171,1166,149,1234,128C1302.9,107,1371,85,1406,74.7L1440,64L1440,0L1405.7,0C1371.4,0,1303,0,1234,0C1165.7,0,1097,0,1029,0C960,0,891,0,823,0C754.3,0,686,0,617,0C548.6,0,480,0,411,0C342.9,0,274,0,206,0C137.1,0,69,0,34,0L0,0Z"></path></svg>